# xmcd
#
# Track frame offsets: 
#        150
#        18966
#        38017
#        43305
#        59625
#        79203
#        91389
#        112547
#        139725
#        166162
#        189722
#        219692
#        238322
#        249903
#        272147
#        292921
#        311677
#
# Disc length: 4422 seconds
#
# Revision: 0
# Processed by: cddbd v1.5.2PL0 Copyright (c) Steve Scherf et al.
# Submitted via: ExactAudioCopy v1.0b1
#
DISCID=f0114411
DTITLE=Various Artist - A Breath of Fresh Air [CD2]
DYEAR=2007
DGENRE=Psychedelic Rock
TTITLE0=Edgar Broughton Band - There's No Vibrations, But Wait
TTITLE1=Michael Chapman - Beautiful Lady
TTITLE2=Quatermass - Entropy
TTITLE3=Quatermass - Black Sheep of the Family
TTITLE4=Pretty Things - Grass
TTITLE5=Shirley and Dolly Collins - Salisbury Plain
TTITLE6=Pink Floyd - Embryo
TTITLE7=Dave Mason - You Shouldn't Have Took More Than You Gave
TTITLE8=Deep Purple - Speed King
TTITLE9=The Greatest Show On Earth - Magic Woman Touch
TTITLE10=Pete Brown and Piblokto! - Aeroplane Head Woman
TTITLE11=Syd Barrett - Baby Lemonade
TTITLE12=Roy Harper - Don't You Grieve
TTITLE13=Pretty Things - October 26
TTITLE14=Kevin Ayers - Song From the Bottom of a Well
TTITLE15=Michael Chapman - The First Leaf of Autumn
TTITLE16=Edgar Broughton Band - Call Me a Liar
EXTD=
EXTT0=
EXTT1=
EXTT2=
EXTT3=
EXTT4=
EXTT5=
EXTT6=
EXTT7=
EXTT8=
EXTT9=
EXTT10=
EXTT11=
EXTT12=
EXTT13=
EXTT14=
EXTT15=
EXTT16=
PLAYORDER=
